HIERARCHY
ROOT Hips
{
	OFFSET -3.958830 18.904000 13.208200
	CHANNELS 6 Xposition Yposition Zposition Zrotation Yrotation Xrotation 
	JOINT LHipJoint
	{
		OFFSET 0.000000 0.000000 0.000000
		CHANNELS 3 Zrotation Yrotation Xrotation
		JOINT LeftUpLeg
		{
			OFFSET 1.800000 -1.400000 0.085000
			CHANNELS 3 Zrotation Yrotation Xrotation
			JOINT LeftLeg
			{
				OFFSET 2.215000 -6.000000 0.000000
				CHANNELS 3 Zrotation Yrotation Xrotation
				JOINT LeftFoot
				{
					OFFSET 2.500000 -6.900000 0.000000
					CHANNELS 3 Zrotation Yrotation Xrotation
					JOINT LeftToeBase
					{
						OFFSET 0.200000 -0.500000 1.950000
						CHANNELS 3 Zrotation Yrotation Xrotation
						End Site
						{
							OFFSET 0.000000 0.000000 0.000000
						}
					}
				}
			}
		}
	}
	JOINT RHipJoint
	{
		OFFSET 0.000000 0.000000 0.000000
		CHANNELS 3 Zrotation Yrotation Xrotation
		JOINT RightUpLeg
		{
			OFFSET -1.800000 -1.400000 0.085000
			CHANNELS 3 Zrotation Yrotation Xrotation
			JOINT RightLeg
			{
				OFFSET -2.215000 -6.000000 0.000000
				CHANNELS 3 Zrotation Yrotation Xrotation
				JOINT RightFoot
				{
					OFFSET -2.500000 -6.900000 0.000000
					CHANNELS 3 Zrotation Yrotation Xrotation
					JOINT RightToeBase
					{
						OFFSET -0.200000 -0.500000 1.950000
						CHANNELS 3 Zrotation Yrotation Xrotation
						End Site
						{
							OFFSET 0.000000 0.000000 0.000000
						}
					}
				}
			}
		}
	}
	JOINT LowerBack
	{
		OFFSET 0.000000 0.000000 0.000000
		CHANNELS 3 Zrotation Yrotation Xrotation
		JOINT Spine
		{
			OFFSET -0.087000 1.940000 -0.288900
			CHANNELS 3 Zrotation Yrotation Xrotation
			JOINT Spine1
			{
				OFFSET 0.000000 1.950000 0.060000
				CHANNELS 3 Zrotation Yrotation Xrotation
				JOINT Neck
				{
					OFFSET 0.000000 0.000000 0.000000
					CHANNELS 3 Zrotation Yrotation Xrotation
					JOINT Neck1
					{
						OFFSET 0.000000 1.600000 0.340000
						CHANNELS 3 Zrotation Yrotation Xrotation
						JOINT Head
						{
							OFFSET 0.000000 1.667000 -0.240000
							CHANNELS 3 Zrotation Yrotation Xrotation
							End Site
							{
								OFFSET 0.000000 0.000000 0.000000
							}
						}
					}
				}
				JOINT LeftShoulder
				{
					OFFSET 0.000000 0.000000 0.000000
					CHANNELS 3 Zrotation Yrotation Xrotation
					JOINT LeftArm
					{
						OFFSET 2.700000 1.550000 -0.730000
						CHANNELS 3 Zrotation Yrotation Xrotation
						JOINT LeftForeArm
						{
							OFFSET 5.450000 0.000000 0.000000
							CHANNELS 3 Zrotation Yrotation Xrotation
							JOINT LeftHand
							{
								OFFSET 3.450000 0.000000 0.000000
								CHANNELS 3 Zrotation Yrotation Xrotation
								JOINT LeftHandIndex1
								{
									OFFSET 0.750000 0.000000 0.000000
									CHANNELS 3 Zrotation Yrotation Xrotation
									End Site
									{
										OFFSET 0.000000 0.000000 0.000000
									}
								}
							}
						}
					}
				}
				JOINT RightShoulder
				{
					OFFSET 0.000000 0.000000 0.000000
					CHANNELS 3 Zrotation Yrotation Xrotation
					JOINT RightArm
					{
						OFFSET -2.700000 1.550000 -0.730000
						CHANNELS 3 Zrotation Yrotation Xrotation
						JOINT RightForeArm
						{
							OFFSET -5.450000 0.000000 0.000000
							CHANNELS 3 Zrotation Yrotation Xrotation
							JOINT RightHand
							{
								OFFSET -3.450000 0.000000 0.000000
								CHANNELS 3 Zrotation Yrotation Xrotation
								JOINT RightHandIndex1
								{
									OFFSET -0.750000 0.000000 0.000000
									CHANNELS 3 Zrotation Yrotation Xrotation
									End Site
									{
										OFFSET 0.000000 0.000000 0.000000
									}
								}
							}
						}
					}
				}
			}
		}
	}
}
MOTION
Frames: 13
Frame Time: 0.016667
0.373190 16.077110 -1.813230 -15.020696 -25.135353 -0.138686 -16.034848 15.012635 3.980769 39.759228 -7.713971 0.488030 4.389587 6.659444 10.664292 -0.031311 7.450137 1.952004 -0.574890 -0.705750 -0.556920 17.480377 -8.365548 2.063184 0.023837 1.969866 -25.421956 2.262100 -8.302036 34.650824 -0.299201 -4.231555 2.912198 -0.351210 0.604220 0.007540 -0.883150 -8.881497 -8.556920 -5.697436 -14.650955 25.582573 7.948557 -16.848588 17.185239 3.293056 -6.227064 -22.428632 -23.990677 21.177834 44.385893 -6.736220 15.708160 -9.916130 2.159478 -21.249630 10.158206 -5.231867 -11.163650 4.255255 -160.972923 -50.769000 129.491446 -3.603938 3.165157 0.801930 0.085720 0.008560 0.033430 -7.174476 21.325766 17.739671 23.226450 -4.391637 2.186560 175.841298 37.355237 141.116979 2.122240 -1.329592 -0.627090 0.663790 0.658460 -0.059960 
0.373210 16.072080 -1.784910 -14.858654 -25.271658 -0.067089 -16.012957 15.037153 3.952498 39.349393 -7.977170 0.802101 4.345776 6.635073 10.838280 -0.031296 7.436292 1.959195 -0.606990 -0.747880 -0.590220 17.473134 -8.449379 2.077840 -0.325019 1.901808 -25.385811 2.425666 -8.298851 34.323785 -0.275696 -4.204876 2.927809 -0.376280 0.632640 0.009940 -0.876467 -8.761917 -8.561454 -5.851733 -14.586355 23.892210 8.469993 -16.679021 16.757094 3.283473 -5.859495 -22.980559 -23.691503 21.476713 46.132196 -5.424310 15.927550 -6.974420 1.463134 -21.416863 10.305338 -2.821942 -10.365446 5.234181 -163.827043 -50.085288 136.700989 -3.658058 3.196163 0.800130 0.104890 -0.009050 0.030900 -6.406507 21.244839 18.155600 21.822895 -5.845518 2.968928 176.882301 36.362662 145.346534 2.127970 -1.320439 -0.635200 0.656450 0.682500 -0.057810 
0.378320 16.072200 -1.749220 -14.885748 -24.648879 -0.018425 -15.983101 15.057817 3.915963 39.177930 -8.240254 0.600753 4.678475 6.510350 11.161390 -0.037640 7.374072 1.957843 -0.603960 -0.748690 -0.592620 17.478704 -8.548376 2.064320 -0.644701 1.619079 -25.138785 2.768086 -8.436475 33.843716 -0.265117 -4.194266 2.909170 -0.379820 0.637740 0.040800 -0.921479 -8.651688 -8.529005 -5.486488 -15.029949 22.307181 8.432820 -17.046316 16.554069 3.182881 -5.582802 -23.129389 -23.285837 21.965574 47.447495 -4.303060 16.318910 -4.417750 0.894054 -21.491222 10.384802 -1.508001 -9.931489 5.760813 -165.355123 -50.296248 141.400480 -3.705326 3.259060 0.776650 0.124800 -0.013820 0.023140 -5.642310 20.955305 18.010448 20.099792 -5.861322 3.829488 176.399219 36.055733 145.427055 2.132514 -1.357189 -0.610380 0.614370 0.691200 -0.054460 
0.376440 16.069190 -1.712520 -14.198585 -24.383318 -0.542641 -15.953336 15.139144 3.848260 38.383248 -8.351199 0.993914 4.932836 6.394794 11.480603 -0.052327 7.277266 1.979193 -0.568130 -0.701100 -0.575530 17.470787 -8.703703 2.000749 -1.535815 1.091787 -24.599849 2.970042 -8.538159 33.501267 -0.270659 -4.189827 2.899107 -0.355590 0.607190 0.037640 -0.915242 -8.561695 -8.451425 -6.046009 -15.192886 20.754353 8.326764 -17.211999 16.476223 3.059026 -5.457480 -23.338015 -23.728351 22.615279 49.087898 -3.239240 16.225220 -3.703690 0.273091 -21.522420 10.427552 -0.808270 -9.771364 6.352426 -165.299286 -50.308176 142.569805 -3.698297 3.278903 0.779440 0.108690 0.001230 0.024980 -4.717434 20.879266 18.030523 18.852125 -6.047404 4.703678 175.494572 35.610725 144.084564 2.143916 -1.382161 -0.593160 0.596720 0.672370 -0.058390 
0.376460 16.067850 -1.682820 -14.035118 -25.360060 -0.582678 -15.924695 15.192069 3.776046 37.800554 -8.386450 1.884556 4.925713 6.460328 12.127417 -0.041254 7.300065 1.971692 -0.552650 -0.688400 -0.569120 17.473954 -8.788246 2.024368 -1.596037 1.124867 -24.486283 2.612852 -8.320960 33.346610 -0.272568 -4.135007 2.914977 -0.357690 0.597010 0.050490 -0.911251 -8.433968 -8.418081 -5.752603 -14.989853 19.211669 8.213127 -16.780464 16.086931 3.226522 -5.339276 -23.659735 -24.447837 23.368857 50.701737 -2.386450 16.119760 -2.734060 -0.542829 -21.738889 10.528141 -0.609291 -10.020922 6.801913 -165.727595 -51.012309 145.063877 -3.717361 3.258398 0.791700 0.101170 0.017610 0.026450 -4.111457 21.115885 18.291771 17.471973 -6.950329 5.162418 175.336978 35.203963 144.745367 2.153814 -1.375725 -0.576900 0.585130 0.670270 -0.057760 
0.368130 16.060490 -1.662330 -13.687074 -27.509342 -0.401926 -15.877921 15.228140 3.677925 36.837333 -8.234383 3.312835 4.490968 6.687382 12.929046 -0.054054 7.425113 1.954063 -0.608300 -0.760000 -0.616200 17.495867 -8.860963 2.116820 -1.364567 1.561783 -24.951023 1.679199 -7.795893 33.495810 -0.236713 -4.064893 2.945489 -0.381630 0.650510 0.039040 -0.933479 -8.221062 -8.390589 -5.569104 -14.464758 17.512361 8.134285 -15.952787 15.290782 3.429143 -5.394163 -24.206492 -25.523740 24.304334 51.483139 -0.553510 15.543590 -0.704600 -1.455668 -21.960864 11.026614 -0.649755 -9.431879 7.590762 -165.919734 -50.923790 146.505694 -3.789777 3.179162 0.813050 0.119230 -0.008890 0.013050 -3.382284 21.583710 18.537898 15.746382 -7.382112 5.874545 175.632947 34.336218 147.290887 2.156296 -1.317074 -0.619960 0.622130 0.723840 -0.059360 
0.375620 16.059470 -1.645410 -13.669425 -28.855033 -0.464110 -15.858428 15.272371 3.618469 36.366044 -8.038744 4.228439 4.265641 6.889466 13.700506 -0.071867 7.545849 1.922270 -0.642890 -0.809190 -0.632390 17.504730 -8.904773 2.144992 -1.272013 1.738355 -24.852591 1.153933 -7.514330 33.511911 -0.213174 -4.028150 2.957801 -0.392520 0.675640 0.030770 -0.925465 -8.133635 -8.370022 -5.109501 -14.135139 16.560841 8.039693 -15.416639 14.936314 3.608022 -5.440099 -24.356667 -26.319370 24.787457 52.056311 -0.092260 15.187230 -0.007370 -2.023254 -22.164578 11.274200 -0.893738 -9.355331 7.874009 -165.718930 -51.366134 146.787946 -3.833266 3.117677 0.830940 0.129230 -0.025840 -0.006990 -3.028928 21.965533 18.458771 14.455485 -7.178323 5.805988 175.519986 34.684051 147.916271 2.145310 -1.268338 -0.653170 0.647070 0.761610 -0.069680 
0.391300 16.051120 -1.634120 -13.683196 -30.046399 -0.936174 -15.839497 15.305007 3.572703 36.017660 -7.799060 5.400415 4.103246 7.088619 14.265640 -0.072935 7.679191 1.894588 -0.635680 -0.806310 -0.620520 17.524861 -8.946025 2.118278 -1.336137 1.750266 -24.294619 0.741979 -7.302608 33.512974 -0.212802 -4.017836 2.962351 -0.378650 0.678000 0.027510 -0.941594 -8.073083 -8.307444 -4.518532 -13.761977 16.297709 7.517305 -14.936030 15.124559 3.551080 -5.653936 -23.947804 -26.929883 24.959554 51.677906 -0.456880 15.065350 -1.391290 -2.287785 -21.891830 11.046230 -0.428051 -9.323465 7.797522 -166.216123 -51.861723 148.344419 -3.852750 3.082056 0.847210 0.127220 -0.026600 -0.011670 -2.610178 22.001549 18.145487 13.749145 -6.474128 5.555770 176.017879 35.135396 150.003394 2.123211 -1.240888 -0.669760 0.669170 0.768200 -0.079330 
0.406190 16.037900 -1.620070 -13.596103 -30.720841 -1.158476 -15.789915 15.319676 3.499588 35.544876 -7.619843 6.067194 4.103308 7.177028 14.924373 -0.089851 7.747341 1.886991 -0.641420 -0.815510 -0.634000 17.567315 -9.019435 2.126663 -1.415401 1.770269 -24.391720 0.159350 -7.108260 33.837278 -0.203996 -4.056868 2.949147 -0.366690 0.710290 0.028350 -1.054819 -7.937331 -8.224190 -3.569687 -13.710945 15.660046 6.661408 -14.670636 14.936427 3.435121 -5.826050 -23.606252 -27.354422 25.212685 51.101719 0.394300 14.632320 -1.103510 -2.221656 -21.566721 10.891669 -0.327453 -9.563876 7.953618 -166.775729 -52.622611 150.350520 -3.895307 3.051899 0.844510 0.146710 -0.046790 -0.008990 -2.437535 21.819048 17.733373 12.222359 -5.958254 5.506858 176.780946 35.506483 153.609945 2.086671 -1.231280 -0.689290 0.687920 0.783070 -0.078380 
0.421430 16.033200 -1.605020 -13.525445 -31.445140 -1.229932 -15.748926 15.351991 3.427025 35.019887 -7.410017 6.536095 4.154085 7.246955 15.686575 -0.124113 7.815821 1.868679 -0.671110 -0.866450 -0.653300 17.594008 -9.093945 2.144138 -1.739413 1.799122 -24.308125 0.309585 -7.069204 33.472075 -0.172048 -4.027610 2.952734 -0.373160 0.746820 0.029280 -1.128203 -7.813923 -8.168704 -2.723325 -13.677619 14.793078 6.148148 -14.382866 14.639677 3.504066 -5.876045 -23.587524 -27.904760 25.565728 51.544371 1.409180 13.989410 0.370330 -2.801671 -21.691232 11.292979 -0.347981 -9.196505 8.325893 -168.636458 -52.957266 154.701842 -3.965159 3.004778 0.854080 0.166570 -0.073850 -0.022070 -1.933208 22.002290 17.214685 10.226541 -5.330064 4.977006 178.093682 36.527766 159.254112 2.044062 -1.194064 -0.722400 0.703030 0.819750 -0.086030 
0.441230 16.030840 -1.595560 -13.520315 -31.856326 -1.581922 -15.683711 15.364305 3.357007 34.623300 -7.210010 6.917942 4.373230 7.260909 16.415051 -0.169346 7.883900 1.844998 -0.705640 -0.925390 -0.675190 17.643269 -9.202955 2.139620 -2.080207 1.712397 -23.803112 0.563278 -7.053333 32.775658 -0.136482 -3.977466 2.962391 -0.381030 0.787730 0.037140 -1.283935 -7.624138 -8.091162 -1.681525 -13.752860 14.276368 5.029878 -14.224504 14.544533 3.468958 -5.856261 -23.509615 -27.805961 25.846732 52.090265 2.684910 13.488110 1.743080 -3.313635 -22.054298 11.725661 0.076411 -8.379023 8.291115 -171.451165 -53.609247 160.719558 -4.039425 2.969759 0.869560 0.191040 -0.100930 -0.038010 -1.408827 22.313219 16.563869 8.880089 -3.868822 4.188192 179.896031 38.344372 166.154812 1.984579 -1.149966 -0.760390 0.715580 0.863170 -0.097080 
0.461000 16.030990 -1.595940 -13.316600 -32.352373 -2.279590 -15.673182 15.410107 3.305395 34.302320 -6.905351 7.281178 4.554677 7.294592 17.001164 -0.210440 7.967363 1.825491 -0.720010 -0.968400 -0.665690 17.651264 -9.260266 2.100557 -2.463391 1.647434 -23.089051 0.536626 -6.899490 32.129240 -0.111898 -3.911898 2.976297 -0.380820 0.809060 0.044360 -1.276858 -7.586313 -8.039384 -1.703609 -13.601674 14.295938 4.680123 -13.999075 14.734556 3.462826 -6.055531 -23.027355 -27.923658 25.791057 52.002283 2.268940 13.454940 1.457730 -4.040706 -22.068684 12.030623 0.836676 -7.590044 8.241292 -177.082515 -53.332144 172.008619 -4.129357 2.908292 0.892550 0.202420 -0.115860 -0.049850 -0.656330 22.636714 15.555995 7.052893 -1.715507 3.028289 -177.756093 40.717447 173.913981 1.928313 -1.106454 -0.797000 0.734900 0.890110 -0.115640 
0.485540 16.036760 -1.600890 -12.758019 -32.631599 -3.394564 -15.704503 15.531768 3.245232 33.581171 -6.648171 7.609650 5.166558 7.131385 17.464157 -0.244611 7.949483 1.827037 -0.719920 -0.988660 -0.638010 17.610362 -9.328055 2.026423 -3.048210 1.396118 -22.160966 0.296034 -6.708285 31.585950 -0.088012 -3.852784 2.984438 -0.375450 0.792080 0.038840 -1.092585 -7.679399 -8.014510 -3.001054 -13.222936 14.334933 5.176104 -13.668215 15.346817 3.480651 -5.967496 -22.771916 -27.684513 25.671084 53.172762 1.941210 13.448270 2.198340 -4.954790 -22.560400 12.409708 1.575003 -7.477741 7.686739 174.392817 -53.942522 -171.413003 -4.203459 2.846222 0.904990 0.198630 -0.122420 -0.070870 0.276739 23.309371 14.875698 5.188503 -0.601667 1.431005 -173.023813 43.178282 -173.282572 1.895098 -1.084588 -0.815960 0.727790 0.898900 -0.141060 
